<mxfile host="Electron" agent="Mozilla/5.0 (Windows NT 10.0; Win64; x64) AppleWebKit/537.36 (KHTML, like Gecko) draw.io/27.0.9 Chrome/134.0.6998.205 Electron/35.4.0 Safari/537.36" version="27.0.9">
  <diagram name="Page-1" id="Ug_tc9CrcGoYgItXkQmR">
    <mxGraphModel dx="1042" dy="668" grid="1" gridSize="10" guides="1" tooltips="1" connect="1" arrows="1" fold="1" page="1" pageScale="1" pageWidth="850" pageHeight="1100" math="0" shadow="0">
      <root>
        <mxCell id="0" />
        <mxCell id="1" parent="0" />
        <mxCell id="qHfT7rKuKQ8OZ_Sm0VRX-1" value="Sach" style="swimlane;fontStyle=1;align=center;verticalAlign=top;childLayout=stackLayout;horizontal=1;startSize=26;horizontalStack=0;resizeParent=1;resizeParentMax=0;resizeLast=0;collapsible=1;marginBottom=0;whiteSpace=wrap;html=1;" parent="1" vertex="1">
          <mxGeometry x="20" y="30" width="270" height="150" as="geometry" />
        </mxCell>
        <mxCell id="qHfT7rKuKQ8OZ_Sm0VRX-2" value="-String tenSach&lt;div&gt;-double giaBan&lt;/div&gt;&lt;div&gt;-int: namXuatBan&lt;/div&gt;&lt;div&gt;-TacGia: tacGia&lt;/div&gt;" style="text;strokeColor=none;fillColor=none;align=left;verticalAlign=top;spacingLeft=4;spacingRight=4;overflow=hidden;rotatable=0;points=[[0,0.5],[1,0.5]];portConstraint=eastwest;whiteSpace=wrap;html=1;" parent="qHfT7rKuKQ8OZ_Sm0VRX-1" vertex="1">
          <mxGeometry y="26" width="270" height="64" as="geometry" />
        </mxCell>
        <mxCell id="qHfT7rKuKQ8OZ_Sm0VRX-3" value="" style="line;strokeWidth=1;fillColor=none;align=left;verticalAlign=middle;spacingTop=-1;spacingLeft=3;spacingRight=3;rotatable=0;labelPosition=right;points=[];portConstraint=eastwest;strokeColor=inherit;" parent="qHfT7rKuKQ8OZ_Sm0VRX-1" vertex="1">
          <mxGeometry y="90" width="270" height="8" as="geometry" />
        </mxCell>
        <mxCell id="qHfT7rKuKQ8OZ_Sm0VRX-4" value="+void inTenSach()&lt;div&gt;+boolean kiemTraCungNam(Sach sachKhac)&lt;/div&gt;&lt;div&gt;+double giaSauKhiGiam(double x)&lt;/div&gt;" style="text;strokeColor=none;fillColor=none;align=left;verticalAlign=top;spacingLeft=4;spacingRight=4;overflow=hidden;rotatable=0;points=[[0,0.5],[1,0.5]];portConstraint=eastwest;whiteSpace=wrap;html=1;" parent="qHfT7rKuKQ8OZ_Sm0VRX-1" vertex="1">
          <mxGeometry y="98" width="270" height="52" as="geometry" />
        </mxCell>
        <mxCell id="qHfT7rKuKQ8OZ_Sm0VRX-5" value="Ngay" style="swimlane;fontStyle=1;align=center;verticalAlign=top;childLayout=stackLayout;horizontal=1;startSize=26;horizontalStack=0;resizeParent=1;resizeParentMax=0;resizeLast=0;collapsible=1;marginBottom=0;whiteSpace=wrap;html=1;" parent="1" vertex="1">
          <mxGeometry x="370" y="210" width="100" height="88" as="geometry" />
        </mxCell>
        <mxCell id="qHfT7rKuKQ8OZ_Sm0VRX-6" value="-int ngay&lt;div&gt;-int thang&lt;/div&gt;&lt;div&gt;-int nam&lt;/div&gt;" style="text;strokeColor=none;fillColor=none;align=left;verticalAlign=top;spacingLeft=4;spacingRight=4;overflow=hidden;rotatable=0;points=[[0,0.5],[1,0.5]];portConstraint=eastwest;whiteSpace=wrap;html=1;" parent="qHfT7rKuKQ8OZ_Sm0VRX-5" vertex="1">
          <mxGeometry y="26" width="100" height="54" as="geometry" />
        </mxCell>
        <mxCell id="qHfT7rKuKQ8OZ_Sm0VRX-7" value="" style="line;strokeWidth=1;fillColor=none;align=left;verticalAlign=middle;spacingTop=-1;spacingLeft=3;spacingRight=3;rotatable=0;labelPosition=right;points=[];portConstraint=eastwest;strokeColor=inherit;" parent="qHfT7rKuKQ8OZ_Sm0VRX-5" vertex="1">
          <mxGeometry y="80" width="100" height="8" as="geometry" />
        </mxCell>
        <mxCell id="qHfT7rKuKQ8OZ_Sm0VRX-10" value="TacGia" style="swimlane;fontStyle=1;align=center;verticalAlign=top;childLayout=stackLayout;horizontal=1;startSize=26;horizontalStack=0;resizeParent=1;resizeParentMax=0;resizeLast=0;collapsible=1;marginBottom=0;whiteSpace=wrap;html=1;" parent="1" vertex="1">
          <mxGeometry x="360" y="45" width="120" height="78" as="geometry" />
        </mxCell>
        <mxCell id="qHfT7rKuKQ8OZ_Sm0VRX-11" value="-String tenTacGia&lt;div&gt;-Ngay ngaySinh&lt;/div&gt;" style="text;strokeColor=none;fillColor=none;align=left;verticalAlign=top;spacingLeft=4;spacingRight=4;overflow=hidden;rotatable=0;points=[[0,0.5],[1,0.5]];portConstraint=eastwest;whiteSpace=wrap;html=1;" parent="qHfT7rKuKQ8OZ_Sm0VRX-10" vertex="1">
          <mxGeometry y="26" width="120" height="44" as="geometry" />
        </mxCell>
        <mxCell id="qHfT7rKuKQ8OZ_Sm0VRX-12" value="" style="line;strokeWidth=1;fillColor=none;align=left;verticalAlign=middle;spacingTop=-1;spacingLeft=3;spacingRight=3;rotatable=0;labelPosition=right;points=[];portConstraint=eastwest;strokeColor=inherit;" parent="qHfT7rKuKQ8OZ_Sm0VRX-10" vertex="1">
          <mxGeometry y="70" width="120" height="8" as="geometry" />
        </mxCell>
        <mxCell id="qHfT7rKuKQ8OZ_Sm0VRX-9" value="+1" style="html=1;verticalAlign=bottom;endArrow=block;curved=0;rounded=0;exitX=0.5;exitY=1;exitDx=0;exitDy=0;entryX=0.5;entryY=0;entryDx=0;entryDy=0;" parent="1" source="qHfT7rKuKQ8OZ_Sm0VRX-10" target="qHfT7rKuKQ8OZ_Sm0VRX-5" edge="1">
          <mxGeometry x="-0.1215" width="80" relative="1" as="geometry">
            <mxPoint x="430" y="255" as="sourcePoint" />
            <mxPoint x="440" y="45" as="targetPoint" />
            <mxPoint as="offset" />
          </mxGeometry>
        </mxCell>
        <mxCell id="qHfT7rKuKQ8OZ_Sm0VRX-15" value="+1" style="html=1;verticalAlign=bottom;endArrow=block;curved=0;rounded=0;entryX=0;entryY=0.5;entryDx=0;entryDy=0;" parent="1" source="qHfT7rKuKQ8OZ_Sm0VRX-2" target="qHfT7rKuKQ8OZ_Sm0VRX-11" edge="1">
          <mxGeometry width="80" relative="1" as="geometry">
            <mxPoint x="370" y="103" as="sourcePoint" />
            <mxPoint x="430" y="103" as="targetPoint" />
          </mxGeometry>
        </mxCell>
        <mxCell id="8GzROCpViJNSp5wm9oFm-1" value="BoPhim" style="swimlane;fontStyle=1;align=center;verticalAlign=top;childLayout=stackLayout;horizontal=1;startSize=26;horizontalStack=0;resizeParent=1;resizeParentMax=0;resizeLast=0;collapsible=1;marginBottom=0;whiteSpace=wrap;html=1;" parent="1" vertex="1">
          <mxGeometry x="20" y="360" width="300" height="160" as="geometry" />
        </mxCell>
        <mxCell id="8GzROCpViJNSp5wm9oFm-2" value="-String tenPhim&lt;div&gt;-int namSanXuat&lt;/div&gt;&lt;div&gt;-HangSanXuat hangSanXuat&lt;/div&gt;&lt;div&gt;-double giaVe&lt;/div&gt;&lt;div&gt;-Ngay ngayChieu&lt;/div&gt;" style="text;strokeColor=none;fillColor=none;align=left;verticalAlign=top;spacingLeft=4;spacingRight=4;overflow=hidden;rotatable=0;points=[[0,0.5],[1,0.5]];portConstraint=eastwest;whiteSpace=wrap;html=1;" parent="8GzROCpViJNSp5wm9oFm-1" vertex="1">
          <mxGeometry y="26" width="300" height="84" as="geometry" />
        </mxCell>
        <mxCell id="8GzROCpViJNSp5wm9oFm-3" value="" style="line;strokeWidth=1;fillColor=none;align=left;verticalAlign=middle;spacingTop=-1;spacingLeft=3;spacingRight=3;rotatable=0;labelPosition=right;points=[];portConstraint=eastwest;strokeColor=inherit;" parent="8GzROCpViJNSp5wm9oFm-1" vertex="1">
          <mxGeometry y="110" width="300" height="8" as="geometry" />
        </mxCell>
        <mxCell id="8GzROCpViJNSp5wm9oFm-4" value="+boolean kiemTraGiaVeReHon(BoPhim phimKhac)&lt;div&gt;+double giaVeKhiCoKM(double KM)&amp;nbsp;&lt;/div&gt;" style="text;strokeColor=none;fillColor=none;align=left;verticalAlign=top;spacingLeft=4;spacingRight=4;overflow=hidden;rotatable=0;points=[[0,0.5],[1,0.5]];portConstraint=eastwest;whiteSpace=wrap;html=1;" parent="8GzROCpViJNSp5wm9oFm-1" vertex="1">
          <mxGeometry y="118" width="300" height="42" as="geometry" />
        </mxCell>
        <mxCell id="8GzROCpViJNSp5wm9oFm-5" value="Ngay" style="swimlane;fontStyle=1;align=center;verticalAlign=top;childLayout=stackLayout;horizontal=1;startSize=26;horizontalStack=0;resizeParent=1;resizeParentMax=0;resizeLast=0;collapsible=1;marginBottom=0;whiteSpace=wrap;html=1;" parent="1" vertex="1">
          <mxGeometry x="375" y="330" width="100" height="88" as="geometry" />
        </mxCell>
        <mxCell id="8GzROCpViJNSp5wm9oFm-6" value="-int ngay&lt;div&gt;-int thang&lt;/div&gt;&lt;div&gt;-int nam&lt;/div&gt;" style="text;strokeColor=none;fillColor=none;align=left;verticalAlign=top;spacingLeft=4;spacingRight=4;overflow=hidden;rotatable=0;points=[[0,0.5],[1,0.5]];portConstraint=eastwest;whiteSpace=wrap;html=1;" parent="8GzROCpViJNSp5wm9oFm-5" vertex="1">
          <mxGeometry y="26" width="100" height="54" as="geometry" />
        </mxCell>
        <mxCell id="8GzROCpViJNSp5wm9oFm-7" value="" style="line;strokeWidth=1;fillColor=none;align=left;verticalAlign=middle;spacingTop=-1;spacingLeft=3;spacingRight=3;rotatable=0;labelPosition=right;points=[];portConstraint=eastwest;strokeColor=inherit;" parent="8GzROCpViJNSp5wm9oFm-5" vertex="1">
          <mxGeometry y="80" width="100" height="8" as="geometry" />
        </mxCell>
        <mxCell id="8GzROCpViJNSp5wm9oFm-8" value="HangSanXuat" style="swimlane;fontStyle=1;align=center;verticalAlign=top;childLayout=stackLayout;horizontal=1;startSize=26;horizontalStack=0;resizeParent=1;resizeParentMax=0;resizeLast=0;collapsible=1;marginBottom=0;whiteSpace=wrap;html=1;" parent="1" vertex="1">
          <mxGeometry x="375" y="470" width="120" height="68" as="geometry" />
        </mxCell>
        <mxCell id="8GzROCpViJNSp5wm9oFm-9" value="-String tenHang&lt;div&gt;-String quocGia&lt;/div&gt;" style="text;strokeColor=none;fillColor=none;align=left;verticalAlign=top;spacingLeft=4;spacingRight=4;overflow=hidden;rotatable=0;points=[[0,0.5],[1,0.5]];portConstraint=eastwest;whiteSpace=wrap;html=1;" parent="8GzROCpViJNSp5wm9oFm-8" vertex="1">
          <mxGeometry y="26" width="120" height="34" as="geometry" />
        </mxCell>
        <mxCell id="8GzROCpViJNSp5wm9oFm-10" value="" style="line;strokeWidth=1;fillColor=none;align=left;verticalAlign=middle;spacingTop=-1;spacingLeft=3;spacingRight=3;rotatable=0;labelPosition=right;points=[];portConstraint=eastwest;strokeColor=inherit;" parent="8GzROCpViJNSp5wm9oFm-8" vertex="1">
          <mxGeometry y="60" width="120" height="8" as="geometry" />
        </mxCell>
        <mxCell id="8GzROCpViJNSp5wm9oFm-14" value="" style="html=1;verticalAlign=bottom;endArrow=block;curved=0;rounded=0;entryX=0;entryY=0.5;entryDx=0;entryDy=0;" parent="1" target="8GzROCpViJNSp5wm9oFm-9" edge="1">
          <mxGeometry x="0.0026" width="80" relative="1" as="geometry">
            <mxPoint x="320" y="460" as="sourcePoint" />
            <mxPoint x="310" y="340" as="targetPoint" />
            <mxPoint as="offset" />
          </mxGeometry>
        </mxCell>
        <mxCell id="8GzROCpViJNSp5wm9oFm-15" value="" style="html=1;verticalAlign=bottom;endArrow=block;curved=0;rounded=0;entryX=0;entryY=0.5;entryDx=0;entryDy=0;" parent="1" target="8GzROCpViJNSp5wm9oFm-6" edge="1">
          <mxGeometry width="80" relative="1" as="geometry">
            <mxPoint x="320" y="420" as="sourcePoint" />
            <mxPoint x="416.5" y="488" as="targetPoint" />
          </mxGeometry>
        </mxCell>
        <mxCell id="fWWcbEbeYXZRA92kq1fy-1" value="Ngay" style="swimlane;fontStyle=1;align=center;verticalAlign=top;childLayout=stackLayout;horizontal=1;startSize=26;horizontalStack=0;resizeParent=1;resizeParentMax=0;resizeLast=0;collapsible=1;marginBottom=0;whiteSpace=wrap;html=1;" parent="1" vertex="1">
          <mxGeometry x="400" y="700" width="100" height="88" as="geometry" />
        </mxCell>
        <mxCell id="fWWcbEbeYXZRA92kq1fy-2" value="-int ngay&lt;div&gt;-int thang&lt;/div&gt;&lt;div&gt;-int nam&lt;/div&gt;" style="text;strokeColor=none;fillColor=none;align=left;verticalAlign=top;spacingLeft=4;spacingRight=4;overflow=hidden;rotatable=0;points=[[0,0.5],[1,0.5]];portConstraint=eastwest;whiteSpace=wrap;html=1;" parent="fWWcbEbeYXZRA92kq1fy-1" vertex="1">
          <mxGeometry y="26" width="100" height="54" as="geometry" />
        </mxCell>
        <mxCell id="fWWcbEbeYXZRA92kq1fy-3" value="" style="line;strokeWidth=1;fillColor=none;align=left;verticalAlign=middle;spacingTop=-1;spacingLeft=3;spacingRight=3;rotatable=0;labelPosition=right;points=[];portConstraint=eastwest;strokeColor=inherit;" parent="fWWcbEbeYXZRA92kq1fy-1" vertex="1">
          <mxGeometry y="80" width="100" height="8" as="geometry" />
        </mxCell>
        <mxCell id="fWWcbEbeYXZRA92kq1fy-4" value="Lop" style="swimlane;fontStyle=1;align=center;verticalAlign=top;childLayout=stackLayout;horizontal=1;startSize=26;horizontalStack=0;resizeParent=1;resizeParentMax=0;resizeLast=0;collapsible=1;marginBottom=0;whiteSpace=wrap;html=1;" parent="1" vertex="1">
          <mxGeometry x="400" y="570" width="120" height="68" as="geometry" />
        </mxCell>
        <mxCell id="fWWcbEbeYXZRA92kq1fy-5" value="-String tenLop&lt;div&gt;-String tenKhoa&lt;/div&gt;" style="text;strokeColor=none;fillColor=none;align=left;verticalAlign=top;spacingLeft=4;spacingRight=4;overflow=hidden;rotatable=0;points=[[0,0.5],[1,0.5]];portConstraint=eastwest;whiteSpace=wrap;html=1;" parent="fWWcbEbeYXZRA92kq1fy-4" vertex="1">
          <mxGeometry y="26" width="120" height="34" as="geometry" />
        </mxCell>
        <mxCell id="fWWcbEbeYXZRA92kq1fy-6" value="" style="line;strokeWidth=1;fillColor=none;align=left;verticalAlign=middle;spacingTop=-1;spacingLeft=3;spacingRight=3;rotatable=0;labelPosition=right;points=[];portConstraint=eastwest;strokeColor=inherit;" parent="fWWcbEbeYXZRA92kq1fy-4" vertex="1">
          <mxGeometry y="60" width="120" height="8" as="geometry" />
        </mxCell>
        <mxCell id="fWWcbEbeYXZRA92kq1fy-7" value="SinhVien" style="swimlane;fontStyle=1;align=center;verticalAlign=top;childLayout=stackLayout;horizontal=1;startSize=26;horizontalStack=0;resizeParent=1;resizeParentMax=0;resizeLast=0;collapsible=1;marginBottom=0;whiteSpace=wrap;html=1;" parent="1" vertex="1">
          <mxGeometry x="20" y="600" width="300" height="170" as="geometry" />
        </mxCell>
        <mxCell id="fWWcbEbeYXZRA92kq1fy-8" value="-String MSSV&lt;div&gt;-String hoVaTen&lt;br&gt;&lt;div&gt;-Ngay ngayThangNamSinh&lt;/div&gt;&lt;div&gt;-double diemTB&lt;/div&gt;&lt;div&gt;-Lop lop&lt;/div&gt;&lt;/div&gt;" style="text;strokeColor=none;fillColor=none;align=left;verticalAlign=top;spacingLeft=4;spacingRight=4;overflow=hidden;rotatable=0;points=[[0,0.5],[1,0.5]];portConstraint=eastwest;whiteSpace=wrap;html=1;" parent="fWWcbEbeYXZRA92kq1fy-7" vertex="1">
          <mxGeometry y="26" width="300" height="84" as="geometry" />
        </mxCell>
        <mxCell id="fWWcbEbeYXZRA92kq1fy-9" value="" style="line;strokeWidth=1;fillColor=none;align=left;verticalAlign=middle;spacingTop=-1;spacingLeft=3;spacingRight=3;rotatable=0;labelPosition=right;points=[];portConstraint=eastwest;strokeColor=inherit;" parent="fWWcbEbeYXZRA92kq1fy-7" vertex="1">
          <mxGeometry y="110" width="300" height="8" as="geometry" />
        </mxCell>
        <mxCell id="fWWcbEbeYXZRA92kq1fy-10" value="+String layTenKhoa()&lt;div&gt;+boolean kiemTraThiDau()&lt;div&gt;+booleam kiemTraCungNgaySinh(SinhVien sv)&lt;/div&gt;&lt;/div&gt;" style="text;strokeColor=none;fillColor=none;align=left;verticalAlign=top;spacingLeft=4;spacingRight=4;overflow=hidden;rotatable=0;points=[[0,0.5],[1,0.5]];portConstraint=eastwest;whiteSpace=wrap;html=1;" parent="fWWcbEbeYXZRA92kq1fy-7" vertex="1">
          <mxGeometry y="118" width="300" height="52" as="geometry" />
        </mxCell>
        <mxCell id="6UmHKCbSCgibE0dPaCGT-1" value="" style="html=1;verticalAlign=bottom;endArrow=block;curved=0;rounded=0;entryX=0;entryY=0.5;entryDx=0;entryDy=0;exitX=1.003;exitY=0.379;exitDx=0;exitDy=0;exitPerimeter=0;" parent="1" source="fWWcbEbeYXZRA92kq1fy-8" target="fWWcbEbeYXZRA92kq1fy-5" edge="1">
          <mxGeometry width="80" relative="1" as="geometry">
            <mxPoint x="330" y="627" as="sourcePoint" />
            <mxPoint x="385" y="590" as="targetPoint" />
          </mxGeometry>
        </mxCell>
        <mxCell id="6UmHKCbSCgibE0dPaCGT-2" value="+1" style="text;html=1;align=center;verticalAlign=middle;resizable=0;points=[];autosize=1;strokeColor=none;fillColor=none;" parent="1" vertex="1">
          <mxGeometry x="350" y="608" width="40" height="30" as="geometry" />
        </mxCell>
        <mxCell id="6UmHKCbSCgibE0dPaCGT-3" value="" style="html=1;verticalAlign=bottom;endArrow=block;curved=0;rounded=0;entryX=0;entryY=0.5;entryDx=0;entryDy=0;exitX=1;exitY=0.881;exitDx=0;exitDy=0;exitPerimeter=0;" parent="1" source="fWWcbEbeYXZRA92kq1fy-8" target="fWWcbEbeYXZRA92kq1fy-2" edge="1">
          <mxGeometry width="80" relative="1" as="geometry">
            <mxPoint x="320" y="766.5" as="sourcePoint" />
            <mxPoint x="399" y="721.5" as="targetPoint" />
          </mxGeometry>
        </mxCell>
        <mxCell id="6UmHKCbSCgibE0dPaCGT-4" value="+1" style="edgeLabel;html=1;align=center;verticalAlign=middle;resizable=0;points=[];" parent="6UmHKCbSCgibE0dPaCGT-3" vertex="1" connectable="0">
          <mxGeometry x="-0.0636" y="3" relative="1" as="geometry">
            <mxPoint x="19" y="4" as="offset" />
          </mxGeometry>
        </mxCell>
        <mxCell id="6UmHKCbSCgibE0dPaCGT-6" value="HangSanXuat" style="swimlane;fontStyle=1;align=center;verticalAlign=top;childLayout=stackLayout;horizontal=1;startSize=26;horizontalStack=0;resizeParent=1;resizeParentMax=0;resizeLast=0;collapsible=1;marginBottom=0;whiteSpace=wrap;html=1;fillColor=#f8cecc;strokeColor=#b85450;" parent="1" vertex="1">
          <mxGeometry x="400" y="830" width="120" height="68" as="geometry" />
        </mxCell>
        <mxCell id="6UmHKCbSCgibE0dPaCGT-7" value="-String tenHang&lt;div&gt;-QuocGia quocGia&lt;/div&gt;" style="text;strokeColor=none;fillColor=none;align=left;verticalAlign=top;spacingLeft=4;spacingRight=4;overflow=hidden;rotatable=0;points=[[0,0.5],[1,0.5]];portConstraint=eastwest;whiteSpace=wrap;html=1;" parent="6UmHKCbSCgibE0dPaCGT-6" vertex="1">
          <mxGeometry y="26" width="120" height="34" as="geometry" />
        </mxCell>
        <mxCell id="6UmHKCbSCgibE0dPaCGT-8" value="" style="line;strokeWidth=1;fillColor=none;align=left;verticalAlign=middle;spacingTop=-1;spacingLeft=3;spacingRight=3;rotatable=0;labelPosition=right;points=[];portConstraint=eastwest;strokeColor=inherit;" parent="6UmHKCbSCgibE0dPaCGT-6" vertex="1">
          <mxGeometry y="60" width="120" height="8" as="geometry" />
        </mxCell>
        <mxCell id="6UmHKCbSCgibE0dPaCGT-9" value="NgaySanXuat" style="swimlane;fontStyle=1;align=center;verticalAlign=top;childLayout=stackLayout;horizontal=1;startSize=26;horizontalStack=0;resizeParent=1;resizeParentMax=0;resizeLast=0;collapsible=1;marginBottom=0;whiteSpace=wrap;html=1;fillColor=#f8cecc;strokeColor=#b85450;" parent="1" vertex="1">
          <mxGeometry x="400" y="930" width="100" height="88" as="geometry" />
        </mxCell>
        <mxCell id="6UmHKCbSCgibE0dPaCGT-10" value="-int ngay&lt;div&gt;-int thang&lt;/div&gt;&lt;div&gt;-int nam&lt;/div&gt;" style="text;strokeColor=none;fillColor=none;align=left;verticalAlign=top;spacingLeft=4;spacingRight=4;overflow=hidden;rotatable=0;points=[[0,0.5],[1,0.5]];portConstraint=eastwest;whiteSpace=wrap;html=1;" parent="6UmHKCbSCgibE0dPaCGT-9" vertex="1">
          <mxGeometry y="26" width="100" height="54" as="geometry" />
        </mxCell>
        <mxCell id="6UmHKCbSCgibE0dPaCGT-11" value="" style="line;strokeWidth=1;fillColor=none;align=left;verticalAlign=middle;spacingTop=-1;spacingLeft=3;spacingRight=3;rotatable=0;labelPosition=right;points=[];portConstraint=eastwest;strokeColor=inherit;" parent="6UmHKCbSCgibE0dPaCGT-9" vertex="1">
          <mxGeometry y="80" width="100" height="8" as="geometry" />
        </mxCell>
        <mxCell id="6UmHKCbSCgibE0dPaCGT-12" value="" style="html=1;verticalAlign=bottom;endArrow=block;curved=0;rounded=0;entryX=0;entryY=0.5;entryDx=0;entryDy=0;exitX=1.003;exitY=0.379;exitDx=0;exitDy=0;exitPerimeter=0;" parent="1" source="6UmHKCbSCgibE0dPaCGT-17" target="6UmHKCbSCgibE0dPaCGT-7" edge="1">
          <mxGeometry width="80" relative="1" as="geometry">
            <mxPoint x="330" y="887" as="sourcePoint" />
            <mxPoint x="385" y="850" as="targetPoint" />
          </mxGeometry>
        </mxCell>
        <mxCell id="6UmHKCbSCgibE0dPaCGT-13" value="+1" style="text;html=1;align=center;verticalAlign=middle;resizable=0;points=[];autosize=1;strokeColor=none;fillColor=none;" parent="1" vertex="1">
          <mxGeometry x="350" y="868" width="40" height="30" as="geometry" />
        </mxCell>
        <mxCell id="6UmHKCbSCgibE0dPaCGT-14" value="" style="html=1;verticalAlign=bottom;endArrow=block;curved=0;rounded=0;entryX=0;entryY=0.5;entryDx=0;entryDy=0;exitX=1;exitY=0.881;exitDx=0;exitDy=0;exitPerimeter=0;" parent="1" source="6UmHKCbSCgibE0dPaCGT-17" target="6UmHKCbSCgibE0dPaCGT-10" edge="1">
          <mxGeometry width="80" relative="1" as="geometry">
            <mxPoint x="320" y="1026.5" as="sourcePoint" />
            <mxPoint x="399" y="981.5" as="targetPoint" />
          </mxGeometry>
        </mxCell>
        <mxCell id="6UmHKCbSCgibE0dPaCGT-15" value="+1" style="edgeLabel;html=1;align=center;verticalAlign=middle;resizable=0;points=[];" parent="6UmHKCbSCgibE0dPaCGT-14" vertex="1" connectable="0">
          <mxGeometry x="-0.0636" y="3" relative="1" as="geometry">
            <mxPoint x="19" y="4" as="offset" />
          </mxGeometry>
        </mxCell>
        <mxCell id="6UmHKCbSCgibE0dPaCGT-16" value="MayTinh" style="swimlane;fontStyle=1;align=center;verticalAlign=top;childLayout=stackLayout;horizontal=1;startSize=26;horizontalStack=0;resizeParent=1;resizeParentMax=0;resizeLast=0;collapsible=1;marginBottom=0;whiteSpace=wrap;html=1;fillColor=#f8cecc;strokeColor=#b85450;" parent="1" vertex="1">
          <mxGeometry x="40" y="860" width="280" height="140" as="geometry" />
        </mxCell>
        <mxCell id="6UmHKCbSCgibE0dPaCGT-17" value="-HangSanXuat hangSanXuat&lt;div&gt;&lt;div&gt;-NgaySanXuat n&lt;span style=&quot;background-color: transparent; color: light-dark(rgb(0, 0, 0), rgb(255, 255, 255));&quot;&gt;gaySanXuat&lt;/span&gt;&lt;/div&gt;&lt;div&gt;-double giaBan&lt;/div&gt;&lt;div&gt;-int thoiGianBaoHanh&lt;/div&gt;&lt;/div&gt;" style="text;strokeColor=none;fillColor=none;align=left;verticalAlign=top;spacingLeft=4;spacingRight=4;overflow=hidden;rotatable=0;points=[[0,0.5],[1,0.5]];portConstraint=eastwest;whiteSpace=wrap;html=1;" parent="6UmHKCbSCgibE0dPaCGT-16" vertex="1">
          <mxGeometry y="26" width="280" height="64" as="geometry" />
        </mxCell>
        <mxCell id="6UmHKCbSCgibE0dPaCGT-18" value="" style="line;strokeWidth=1;fillColor=none;align=left;verticalAlign=middle;spacingTop=-1;spacingLeft=3;spacingRight=3;rotatable=0;labelPosition=right;points=[];portConstraint=eastwest;strokeColor=inherit;" parent="6UmHKCbSCgibE0dPaCGT-16" vertex="1">
          <mxGeometry y="90" width="280" height="8" as="geometry" />
        </mxCell>
        <mxCell id="6UmHKCbSCgibE0dPaCGT-19" value="&lt;div&gt;+boolean kiemTraGiaReHon(MayTinh mayTinh)&lt;div&gt;+String layTenQuocGia()&lt;/div&gt;&lt;/div&gt;" style="text;strokeColor=none;fillColor=none;align=left;verticalAlign=top;spacingLeft=4;spacingRight=4;overflow=hidden;rotatable=0;points=[[0,0.5],[1,0.5]];portConstraint=eastwest;whiteSpace=wrap;html=1;" parent="6UmHKCbSCgibE0dPaCGT-16" vertex="1">
          <mxGeometry y="98" width="280" height="42" as="geometry" />
        </mxCell>
        <mxCell id="6UmHKCbSCgibE0dPaCGT-20" value="QuocGia" style="swimlane;fontStyle=1;align=center;verticalAlign=top;childLayout=stackLayout;horizontal=1;startSize=26;horizontalStack=0;resizeParent=1;resizeParentMax=0;resizeLast=0;collapsible=1;marginBottom=0;whiteSpace=wrap;html=1;fillColor=#f8cecc;strokeColor=#b85450;" parent="1" vertex="1">
          <mxGeometry x="590" y="830" width="120" height="68" as="geometry" />
        </mxCell>
        <mxCell id="6UmHKCbSCgibE0dPaCGT-21" value="-String maQuocGia&lt;div&gt;-String tenQuocGia&lt;/div&gt;" style="text;strokeColor=none;fillColor=none;align=left;verticalAlign=top;spacingLeft=4;spacingRight=4;overflow=hidden;rotatable=0;points=[[0,0.5],[1,0.5]];portConstraint=eastwest;whiteSpace=wrap;html=1;" parent="6UmHKCbSCgibE0dPaCGT-20" vertex="1">
          <mxGeometry y="26" width="120" height="34" as="geometry" />
        </mxCell>
        <mxCell id="6UmHKCbSCgibE0dPaCGT-22" value="" style="line;strokeWidth=1;fillColor=none;align=left;verticalAlign=middle;spacingTop=-1;spacingLeft=3;spacingRight=3;rotatable=0;labelPosition=right;points=[];portConstraint=eastwest;strokeColor=inherit;" parent="6UmHKCbSCgibE0dPaCGT-20" vertex="1">
          <mxGeometry y="60" width="120" height="8" as="geometry" />
        </mxCell>
        <mxCell id="6UmHKCbSCgibE0dPaCGT-24" value="" style="html=1;verticalAlign=bottom;endArrow=block;curved=0;rounded=0;entryX=0.013;entryY=0.282;entryDx=0;entryDy=0;entryPerimeter=0;exitX=1.003;exitY=0.282;exitDx=0;exitDy=0;exitPerimeter=0;" parent="1" source="6UmHKCbSCgibE0dPaCGT-7" target="6UmHKCbSCgibE0dPaCGT-21" edge="1">
          <mxGeometry width="80" relative="1" as="geometry">
            <mxPoint x="540" y="866" as="sourcePoint" />
            <mxPoint x="629" y="853" as="targetPoint" />
          </mxGeometry>
        </mxCell>
        <mxCell id="6UmHKCbSCgibE0dPaCGT-25" value="+1" style="edgeLabel;html=1;align=center;verticalAlign=middle;resizable=0;points=[];" parent="6UmHKCbSCgibE0dPaCGT-24" vertex="1" connectable="0">
          <mxGeometry x="0.2994" relative="1" as="geometry">
            <mxPoint x="11" y="-10" as="offset" />
          </mxGeometry>
        </mxCell>
      </root>
    </mxGraphModel>
  </diagram>
</mxfile>
